# xmcd
# 
# Track frame offsets:
#     150
#     18990
#     35407
#     54492
#     77610
#     94965
#     112440
#     134400
#     156542
#     179430
#     201495
#     222985
# 
# Disc length: 3355
# 
# Revision: 19
# Processed by: cddbd v1.5.2PL0 Copyright (c) Steve Scherf et al.
# Submitted via: fre:ac v1.0.31
# 
DISCID=b50d190c
DTITLE=Eric Clapton - August
DYEAR=1986
DGENRE=Blues
TTITLE0=It's in the Way That You Use It
TTITLE1=Run
TTITLE2=Tearing Us Apart
TTITLE3=Bad Influence
TTITLE4=Walk Away
TTITLE5=Hung Up on Your Love
TTITLE6=Take a Chance
TTITLE7=Hold On
TTITLE8=Miss You
TTITLE9=Holy Mother
TTITLE10=Behind the Mask
TTITLE11=Grand Illusion
EXTD=
EXTT0=
EXTT1=
EXTT2=
EXTT3=
EXTT4=
EXTT5=
EXTT6=
EXTT7=
EXTT8=
EXTT9=
EXTT10=
EXTT11=
PLAYORDER=
